<?xml version="1.0" encoding="utf-8"?>
<svg viewBox="0 0 34 34" width="34" height="34" xmlns="http://www.w3.org/2000/svg">
  <g transform="matrix(0.4249980151653289, 0, 0, 0.4249980151653289, -4.249901834873867, -4.24998289719197)">
    <path d="M10,31.262207c-0.0244141,5.7304688,2.3554688,11.2529297,6.5292969,15.1518555   c3.4453125,3.2172852,5.3320312,7.421875,5.3134766,11.8374023c-0.0009766,0.2670898,0.1367188,0.5898438,0.3251953,0.7788086   c0.3233643,0.3236694,1.3320923,0.5667725,2.5394897,0.7489014l0.065979,15.3165283   c-1.7822266,0.1210938-3.4365234,0.8701172-4.7080078,2.1411133c-1.4013672,1.4013672-2.1679688,3.2680664-2.1591797,5.2563477   c0.0166016,4.0976562,3.3642578,7.4448242,7.4619141,7.4624023c0.0097656,0,0.0205078,0,0.03125,0   c1.9453125,0,3.8046875-0.7749023,5.1738281-2.1191406C31.9589844,89.199707,33.8359375,89.9916992,35.7929688,90   c0.0107422,0,0.0214844,0,0.0322266,0c1.9765625,0,3.8310547-0.7661133,5.2246094-2.159668   c1.4003906-1.4008789,2.1669922-3.2675781,2.1582031-5.2553711c-0.0166016-3.9194336-3.0791016-7.1523438-6.9296875-7.4414062   l-0.065979-15.3364868c1.2926025-0.1848755,2.3934937-0.4359741,2.7339478-0.7767944   c0.1875-0.1884766,0.3261719-0.5112305,0.3251953-0.777832c-0.0185547-4.4174805,1.8681641-8.621582,5.3125-11.8383789   c4.1738281-3.8989258,6.5537109-9.4213867,6.5292969-15.1474609c0-0.2163086-0.0283203-5.3549805-2.5429688-10.5678711   C46.2158203,15.8178711,41.1787109,10,30.5566406,10s-15.6591797,5.8178711-18.0136719,10.6987305   C10.0283203,25.9116211,10,31.050293,10,31.262207z M34.2822266,76.1479492   c0.0009766,0.2763672,0.1396484,0.5380859,0.3417969,0.7260742c0.2021484,0.1884766,0.4941406,0.2832031,0.7734375,0.2641602   c0.1123047-0.0078125,0.2265625-0.0136719,0.3408203-0.015625c3.0039062,0.0126953,5.4570312,2.4667969,5.4697266,5.4707031   c0.0068359,1.4506836-0.5517578,2.8120117-1.5732422,3.8330078C38.6191406,87.4418945,37.2675781,88,35.8251953,88   c-0.0078125,0-0.015625,0-0.0244141,0c-1.7353516-0.0073242-3.3867188-0.859375-4.4189453-2.2792969   c-0.1875-0.2587891-0.4882812-0.4121094-0.8085938-0.4121094h-0.0009766   c-0.3212891,0.0004883-0.6220703,0.1542969-0.8095703,0.4140625c-1.0117188,1.3994141-2.640625,2.2329102-4.3632812,2.2329102   c-0.0078125,0-0.015625,0-0.0234375,0c-3.0039062-0.0126953-5.4570312-2.4667969-5.4697266-5.4707031   c-0.0068359-1.4511719,0.5527344-2.8125,1.5732422-3.8334961c1.0146484-1.0151367,2.3671875-1.5732422,3.8105469-1.5732422   c0.1103516,0.003418,0.2294922,0.0083008,0.4140625,0.0219727c0.2773438,0.0234375,0.5507812-0.0761719,0.7558594-0.2661133   c0.203125-0.1899414,0.3183594-0.456543,0.3173828-0.7353516l-0.0687866-16.0797729   c1.9620972,0.1851807,3.8085938,0.2472534,3.8441772,0.2472534h0.0009766c0.038208,0,1.7701416-0.059082,3.6595459-0.2304077   L34.2822266,76.1479492z M30.5566406,12c7.6699219,0,13.1152344,3.199707,16.1835938,9.5097656   c2.3369141,4.8046875,2.3730469,9.7084961,2.3730469,9.7612305c0.0224609,5.2509766-2.0712891,10.1098633-5.8945312,13.6811523   c-3.6884766,3.4448242-5.78125,7.9189453-5.9375,12.6611328c-1.5253906,0.3251953-6.0126953,0.652832-6.7207031,0.652832   c-0.0029297,0-0.0048828,0-0.0078125,0c-0.0019531,0-0.0039062,0-0.0058594,0c-0.703125,0-5.1884766-0.3276367-6.7138672-0.652832   c-0.15625-4.7412109-2.2490234-9.215332-5.9384766-12.6611328C14.0712891,41.3808594,11.9775391,36.5219727,12,31.2666016   c0-0.0483398,0.0263672-4.8935547,2.3447266-9.6987305C17.4072266,15.2192383,22.8623047,12,30.5566406,12z"/>
    <path d="M78.1582031,41.746582c0.0009766-0.2661133-0.1376953-0.5888672-0.3261719-0.7773438   c-0.3236694-0.3234863-1.3323364-0.5664673-2.5394897-0.7485352l-0.065979-15.3164062   c1.78125-0.1210938,3.4365234-0.8701172,4.7080078-2.1411133c1.4013672-1.4008789,2.1679688-3.2675781,2.1601562-5.2568359   c-0.0175781-4.097168-3.3652344-7.4443359-7.4628906-7.4619141c-0.0097656,0-0.0205078,0-0.03125,0   c-1.9453125,0-3.8046875,0.7749023-5.1738281,2.1191406C68.0410156,10.800293,66.1640625,10.0083008,64.2070312,10   c-0.0107422,0-0.0214844,0-0.0322266,0c-1.9755859,0-3.8300781,0.7661133-5.2226562,2.1586914   c-1.4013672,1.4008789-2.1679688,3.2675781-2.1601562,5.2568359c0.0175781,3.9189453,3.0800781,7.1518555,6.9296875,7.440918   l0.065979,15.3364868c-1.2919312,0.1848145-2.3922729,0.435791-2.7329712,0.7763062   c-0.1884766,0.1884766-0.3271484,0.5117188-0.3261719,0.7783203c0.0185547,4.4174805-1.8681641,8.621582-5.3125,11.8383789   c-4.1738281,3.8989258-6.5537109,9.4213867-6.5292969,15.1474609c0,0.2163086,0.0283203,5.3549805,2.5429688,10.5678711   C53.7841797,84.1821289,58.8212891,90,69.4433594,90s15.6591797-5.8178711,18.0136719-10.6987305   C89.9716797,74.0883789,90,68.949707,90,68.737793c0.0244141-5.7304688-2.3554688-11.2529297-6.5292969-15.1518555   C80.0263672,50.3691406,78.1396484,46.1650391,78.1582031,41.746582z M65.7177734,23.8520508   c-0.0009766-0.2763672-0.140625-0.5380859-0.3427734-0.7260742c-0.203125-0.1884766-0.5058594-0.2822266-0.7734375-0.2641602   c-0.1123047,0.0073242-0.2207031,0.0131836-0.3388672,0.015625c-3.0029297-0.0126953-5.4570312-2.4667969-5.4707031-5.4702148   c-0.0058594-1.4516602,0.5527344-2.8129883,1.5742188-3.8339844C61.3808594,12.5581055,62.7333984,12,64.1748047,12   c0.0078125,0,0.0166016,0,0.0244141,0c1.7353516,0.0073242,3.3867188,0.859375,4.4189453,2.2792969   c0.1875,0.2587891,0.4882812,0.4121094,0.8085938,0.4121094h0.0009766   c0.3212891-0.0004883,0.6220703-0.1542969,0.8095703-0.4140625c1.0117188-1.3994141,2.640625-2.2329102,4.3632812-2.2329102   c0.0078125,0,0.015625,0,0.0234375,0c3.0029297,0.0126953,5.4570312,2.4667969,5.4707031,5.4702148   c0.0058594,1.4516602-0.5527344,2.8134766-1.5742188,3.8344727c-1.015625,1.0146484-2.3671875,1.5727539-3.8105469,1.5727539   c-0.1083984,0-0.2265625-0.0083008-0.4140625-0.0224609c-0.2763672-0.015625-0.5507812,0.0766602-0.7558594,0.2666016   c-0.203125,0.1899414-0.3183594,0.456543-0.3173828,0.7353516l0.0687866,16.0797119   c-1.9620972-0.1851807-3.8085327-0.2471924-3.8441772-0.2471924c0,0,0,0-0.0009766,0   c-0.038208,0-1.7701416,0.0592041-3.6595459,0.2304688L65.7177734,23.8520508z M85.6552734,78.4321289   C82.5927734,84.7807617,77.1376953,88,69.4433594,88c-7.6699219,0-13.1152344-3.199707-16.1835938-9.5097656   c-2.3369141-4.8046875-2.3730469-9.7084961-2.3730469-9.7612305c-0.0224609-5.2509766,2.0712891-10.1098633,5.8945312-13.6811523   c3.6884766-3.4453125,5.7822266-7.9194336,5.9375-12.6611328c1.5253906-0.3251953,6.0126953-0.652832,6.7216797-0.652832   c0.0029297,0,0.0078125-0.0009766,0.0126953,0c0.703125,0,5.1894531,0.3276367,6.7148438,0.652832   c0.15625,4.7421875,2.2490234,9.2163086,5.9375,12.6611328C85.9287109,58.6191406,88.0224609,63.4780273,88,68.7333984   C88,68.7817383,87.9736328,73.6269531,85.6552734,78.4321289z"/>
  </g>
</svg>