<?xml version="1.0"?>
<svg width="34" height="34" xmlns="http://www.w3.org/2000/svg" xmlns:svg="http://www.w3.org/2000/svg" enable-background="new 0 0 100 100" version="1.1" xml:space="preserve">

 <g class="layer">
  <title>Layer 1</title>
  <g id="svg_7">
   <path d="m31.24,23.25c-0.86,-0.72 -1.96,-0.99 -3.09,-0.78l0.1,-0.23c0.08,-0.14 0.79,-1.36 1.94,-2.09c0.18,-0.12 0.23,-0.36 0.12,-0.54c-0.12,-0.18 -0.35,-0.23 -0.54,-0.12c-0.22,0.14 -0.43,0.3 -0.62,0.47c0.13,-0.54 0.18,-1.11 -0.04,-1.66c-0.52,-1.31 -2.31,-1.77 -2.38,-1.79c-0.16,-0.04 -0.33,0.03 -0.42,0.17c-0.04,0.07 -1.03,1.62 -0.51,2.93c0.38,0.97 1.46,1.47 2.02,1.68l-0.38,0.88c-0.62,-0.97 -1.56,-1.58 -2.68,-1.71c-1.13,-0.14 -2.2,0.24 -3.04,1.06c-0.86,0.85 -1.42,2.1 -1.6,3.62c-0.18,1.53 0.04,3.03 0.64,4.21c0.63,1.23 1.58,1.99 2.68,2.12c0.13,0.02 0.26,0.02 0.4,0.02c0.09,0.1 0.19,0.19 0.29,0.28c0.56,0.47 1.27,0.69 2.05,0.69c1.59,0 3.44,-0.94 4.83,-2.61c0.99,-1.18 1.52,-2.44 1.54,-3.65c0.02,-1.17 -0.44,-2.21 -1.31,-2.94zm-4.72,-3.93c-0.27,-0.68 0.08,-1.55 0.3,-1.97c0.44,0.16 1.29,0.55 1.57,1.23c0.24,0.61 -0.02,1.39 -0.26,1.98c-0.51,-0.18 -1.34,-0.58 -1.6,-1.25zm3.89,10.01c-1.8,2.16 -4.4,2.97 -5.78,1.82c-0.11,-0.09 -0.21,-0.2 -0.31,-0.32c-0.07,-0.09 -0.19,-0.15 -0.3,-0.15c-0.01,0 -0.03,0 -0.04,0c-0.15,0.02 -0.3,0.01 -0.44,0c-0.84,-0.1 -1.58,-0.7 -2.08,-1.69c-0.53,-1.04 -0.73,-2.38 -0.56,-3.76c0.16,-1.35 0.64,-2.44 1.38,-3.16c0.66,-0.65 1.52,-0.95 2.4,-0.84c1.1,0.13 1.99,0.86 2.44,1.99c0.04,0.1 0.11,0.18 0.21,0.21c0.09,0.04 0.2,0.04 0.3,0c1.14,-0.45 2.27,-0.3 3.12,0.41c0.69,0.57 1.05,1.4 1.04,2.33c-0.02,1.03 -0.49,2.12 -1.36,3.16z" id="svg_1"/>
   <path d="m6.24,11.81l8.67,9.32c0.41,0.44 0.97,0.67 1.54,0.67c0.43,0 0.86,-0.13 1.23,-0.4c0.86,-0.62 1.12,-1.78 0.61,-2.71l-6.13,-11.15c-0.32,-0.57 -0.86,-0.99 -1.5,-1.13c-0.35,-0.08 -0.71,-0.07 -1.04,0.01c0.39,-1.18 0.09,-2.61 -0.18,-3.9c-0.06,-0.3 -0.12,-0.6 -0.18,-0.89c-0.03,-0.15 -0.14,-0.27 -0.29,-0.31c-0.15,-0.04 -0.3,0.02 -0.4,0.14c-0.03,0.04 -0.68,0.88 -1.36,2.34c-0.72,-0.6 -1.7,-1.19 -2.86,-1.26c-0.18,-0.01 -0.35,0.11 -0.4,0.29c-0.29,1.11 -0.05,2.22 0.28,3.07c-1.71,0.24 -2.61,0.58 -2.64,0.6c-0.14,0.05 -0.24,0.19 -0.25,0.34c-0.01,0.15 0.07,0.3 0.21,0.37c0.23,0.12 0.48,0.26 0.73,0.41c1.17,0.66 2.46,1.39 3.74,1.4c-0.2,0.31 -0.33,0.66 -0.37,1.03c-0.06,0.65 0.16,1.3 0.6,1.78zm7.85,0.86l-3.58,2.59l-2.08,-2.24l4.19,-3.03l1.47,2.68zm1.85,3.37l-2.81,2.03l-2.08,-2.24l3.42,-2.48l1.47,2.68zm1.28,4.73c-0.54,0.39 -1.29,0.32 -1.74,-0.17l-1.82,-1.96l2.66,-1.92l1.29,2.34c0.32,0.58 0.16,1.32 -0.38,1.71zm-6.74,-13.6c0.42,0.09 0.78,0.36 0.99,0.74l0.76,1.39l-4.34,3.14l-1.08,-1.16c-0.29,-0.31 -0.44,-0.74 -0.4,-1.17c0.04,-0.43 0.27,-0.82 0.62,-1.07l2.25,-1.62c0.26,-0.18 0.56,-0.28 0.88,-0.28c0.11,0 0.22,0.01 0.33,0.04zm-7.76,-0.2c0.49,-0.12 1.2,-0.26 2.11,-0.36c0.12,-0.02 0.24,-0.09 0.3,-0.2c0.06,-0.11 0.07,-0.24 0.01,-0.35c-0.33,-0.69 -0.66,-1.69 -0.51,-2.7c1.01,0.17 1.87,0.83 2.44,1.37c0.09,0.09 0.22,0.12 0.35,0.1c0.12,-0.03 0.23,-0.11 0.28,-0.23c0.35,-0.8 0.71,-1.45 0.98,-1.9c0.34,1.63 0.69,3.31 -0.33,4.32c0,0.01 -0.61,0.67 -1.41,1.02c-1.29,0.57 -2.78,-0.25 -4.22,-1.07z" id="svg_2"/>
   <path d="m3.31,19.64c0.18,0.05 0.36,0.07 0.53,0.07c0.02,0 0.05,0 0.07,0c-0.7,0.97 -0.92,2.21 -0.54,3.44c0.03,0.09 0.05,0.17 0.09,0.25c0.18,0.45 0.17,0.93 0,1.35c-0.58,1.39 -0.57,2.93 0,4.32c0.88,2.13 2.99,3.47 5.23,3.47c0.43,0 0.87,-0.05 1.3,-0.16c1.54,-0.37 2.81,-1.33 3.59,-2.7c0.77,-1.35 0.94,-2.97 0.48,-4.46c-0.37,-1.2 -1.11,-2.22 -2.13,-2.94c-0.48,-0.34 -0.83,-0.81 -0.96,-1.32c-0.06,-0.22 -0.14,-0.44 -0.24,-0.66c-0.72,-1.55 -2.42,-2.47 -4.09,-2.24c-0.01,0 -0.11,0.01 -0.26,0.04c-0.06,-0.43 -0.06,-1.2 0.49,-1.95c0.12,-0.18 0.09,-0.42 -0.09,-0.55c-0.18,-0.12 -0.42,-0.09 -0.54,0.09c-0.53,0.73 -0.66,1.47 -0.66,2.03c-0.37,-0.45 -0.86,-0.9 -1.5,-1.07c-1.28,-0.33 -2.58,0.63 -2.64,0.67c-0.15,0.11 -0.2,0.31 -0.12,0.47c0.03,0.06 0.7,1.53 1.98,1.86zm3.41,-0.81c1.37,-0.19 2.73,0.55 3.31,1.8c0.08,0.17 0.14,0.35 0.19,0.53c0.18,0.69 0.63,1.32 1.27,1.76c0.88,0.62 1.52,1.5 1.83,2.53c0.4,1.3 0.25,2.66 -0.42,3.84c-0.67,1.18 -1.77,2.01 -3.09,2.33c-2.31,0.56 -4.73,-0.67 -5.63,-2.86c-0.5,-1.2 -0.5,-2.53 -0.01,-3.72c0.25,-0.61 0.26,-1.29 0.01,-1.92c-0.02,-0.07 -0.05,-0.13 -0.07,-0.2c-0.46,-1.5 0.19,-3.02 1.62,-3.78c0.5,-0.27 0.94,-0.3 0.97,-0.3zm-2.82,-1.43c0.55,0.14 0.99,0.64 1.31,1.09c-0.39,0.23 -1.09,0.56 -1.69,0.4c-0.63,-0.16 -1.08,-0.76 -1.31,-1.13c0.38,-0.21 1.07,-0.52 1.69,-0.36z" id="svg_3"/>
   <path d="m24.46,3.49c-0.3,-0.32 -0.7,-0.59 -1.19,-0.78c-1.11,-0.44 -2.12,-0.32 -2.99,0.36c-0.83,0.65 -1.57,1.83 -2.28,3.61c-1.63,4.09 -1.41,7.01 0.58,7.8c0.13,0.05 0.26,0.09 0.4,0.12c0.21,0.3 0.46,0.52 0.71,0.67c0.25,0.15 0.56,0.28 0.93,0.32c0.09,0.12 0.19,0.23 0.31,0.33c0.46,0.4 1,0.6 1.61,0.6c1.55,0 3.52,-1.25 5.6,-3.63c1.73,-1.97 3.42,-4.5 1.13,-6.5c-0.41,-0.36 -0.84,-0.6 -1.27,-0.72c-0.16,-0.62 -0.52,-1.13 -1.08,-1.55c0.21,-0.51 0.51,-1.55 0.02,-2.58c-0.09,-0.19 -0.32,-0.28 -0.51,-0.19c-0.19,0.09 -0.28,0.32 -0.19,0.52c0.32,0.7 0.16,1.43 0,1.85c-0.6,-0.27 -1.19,-0.34 -1.78,-0.21zm-5.74,3.47c0.66,-1.65 1.32,-2.72 2.04,-3.28c0.65,-0.51 1.36,-0.59 2.22,-0.25c0.26,0.1 0.48,0.23 0.66,0.37c-0.02,0.01 -0.04,0.02 -0.06,0.03c-0.94,0.54 -1.91,1.63 -2.96,3.35c-1.08,1.76 -1.77,3.4 -2.01,4.74c-0.12,0.68 -0.11,1.23 -0.02,1.69c-1.46,-0.95 -0.92,-3.99 0.13,-6.64zm10.04,0c0.99,0.86 1.62,2.18 -1.2,5.4c-1.89,2.16 -4.38,4.05 -5.88,3.12c0.44,-0.13 0.94,-0.37 1.49,-0.79c1.09,-0.82 2.23,-2.19 3.31,-3.95c1.05,-1.72 1.58,-3.08 1.63,-4.16c0,-0.02 0,-0.04 0,-0.06c0.23,0.11 0.44,0.25 0.67,0.44zm-1.44,-0.41c-0.04,0.95 -0.54,2.19 -1.52,3.79c-1.03,1.68 -2.1,2.97 -3.11,3.73c-1.02,0.78 -1.9,0.95 -2.6,0.53c-0.7,-0.43 -0.94,-1.29 -0.72,-2.55c0.22,-1.25 0.88,-2.79 1.9,-4.47c0.98,-1.6 1.86,-2.61 2.68,-3.08c0.36,-0.2 0.71,-0.3 1.06,-0.3c0.39,0 0.79,0.13 1.2,0.38c0.78,0.48 1.13,1.11 1.09,1.97z" id="svg_4"/>
  </g>
 </g>
</svg>