<?xml version="1.0" encoding="utf-8"?>
<svg viewBox="0 0 34 34" width="34" height="34" xmlns="http://www.w3.org/2000/svg">
  <path d="M 31.383 4.385 C 31.617 4.385 31.808 4.195 31.808 3.96 L 31.808 0.425 C 31.808 0.19 31.617 0 31.383 0 L 20.032 0 C 19.797 0 19.607 0.19 19.607 0.425 L 19.607 1.098 L 17.684 1.098 C 17.449 1.098 17.259 1.289 17.259 1.523 L 17.259 3.851 C 17.259 4.085 17.449 4.276 17.684 4.276 L 19.607 4.276 L 19.607 4.698 C 19.607 4.933 19.797 5.123 20.032 5.123 L 21.999 5.123 C 21.63 6.083 20.531 8.048 17.684 8.048 C 17.449 8.048 17.259 8.239 17.259 8.473 C 17.259 8.708 17.449 8.898 17.684 8.898 C 20.054 8.898 21.405 7.709 22.153 6.609 L 22.153 9.421 C 22.153 14.398 20.829 16.412 19.428 18.545 C 19.299 18.74 19.171 18.935 19.044 19.132 C 18.686 19.688 18.337 20.183 17.999 20.661 C 16.712 22.485 15.695 23.926 15.695 26.622 L 15.695 31.54 C 15.695 32.897 16.806 34 18.173 34 L 31.521 34 C 32.208 34 32.847 33.727 33.319 33.231 C 33.79 32.736 34.03 32.088 33.997 31.405 C 33.325 17.812 28.089 10.318 27.313 9.277 L 27.313 7.679 C 27.314 5.801 29.063 4.385 31.383 4.385 Z M 18.109 3.426 L 18.109 1.948 L 19.607 1.948 L 19.607 3.426 L 18.109 3.426 Z M 20.457 0.85 L 30.958 0.85 L 30.958 3.55 C 28.367 3.72 26.463 5.438 26.463 7.679 L 26.463 8.996 L 23.003 8.996 L 23.003 4.698 C 23.003 4.684 22.996 4.672 22.995 4.659 C 22.992 4.63 22.986 4.602 22.978 4.575 C 22.97 4.549 22.96 4.525 22.948 4.501 C 22.935 4.477 22.92 4.457 22.904 4.436 C 22.886 4.414 22.868 4.394 22.845 4.375 C 22.827 4.359 22.806 4.347 22.784 4.334 C 22.757 4.319 22.731 4.307 22.701 4.298 C 22.689 4.294 22.68 4.286 22.667 4.283 C 22.653 4.28 22.639 4.283 22.625 4.282 C 22.608 4.28 22.594 4.273 22.577 4.273 L 20.456 4.273 L 20.456 0.85 L 20.457 0.85 Z M 19.759 19.593 C 19.885 19.397 20.012 19.204 20.139 19.011 C 21.507 16.928 22.918 14.768 22.996 9.846 L 26.675 9.846 C 27.247 10.641 29.799 14.43 31.542 20.967 L 18.824 20.967 C 19.127 20.538 19.437 20.092 19.759 19.593 Z M 18.228 21.817 L 31.759 21.817 C 32.257 23.836 32.67 26.097 32.929 28.595 L 16.545 28.595 L 16.545 26.622 C 16.545 24.51 17.228 23.269 18.228 21.817 Z M 32.703 32.645 C 32.393 32.971 31.973 33.151 31.521 33.151 L 18.173 33.151 C 17.275 33.151 16.545 32.428 16.545 31.54 L 16.545 29.445 L 33.008 29.445 C 33.065 30.099 33.115 30.763 33.148 31.448 C 33.17 31.895 33.013 32.32 32.703 32.645 Z" style="" transform="matrix(1.0000000000000002, 0, 0, 1.0000000000000002, 0, 7.105427357601002e-15)"/>
  <path d="M 1.816 34 L 11.997 34 C 12.998 34 13.812 33.186 13.812 32.185 L 13.812 19.832 C 13.812 19.044 13.587 18.279 13.16 17.621 C 12.849 17.141 12.849 16.496 13.16 16.017 C 13.587 15.358 13.812 14.594 13.812 13.806 L 13.812 9.583 C 13.812 7.45 12.163 5.697 10.074 5.524 L 10.074 3.261 C 10.074 2.708 9.624 2.258 9.07 2.258 L 8.473 2.258 L 8.473 0.425 C 8.473 0.19 8.283 0 8.048 0 L 5.764 0 C 5.529 0 5.339 0.19 5.339 0.425 L 5.339 2.258 L 4.742 2.258 C 4.189 2.258 3.739 2.708 3.739 3.261 L 3.739 5.524 C 1.649 5.697 0 7.449 0 9.583 L 0 13.806 C 0 14.594 0.226 15.358 0.652 16.017 C 0.963 16.496 0.963 17.141 0.652 17.62 C 0.226 18.279 0 19.044 0 19.832 L 0 32.185 C 0 33.186 0.815 34 1.816 34 Z M 12.963 28.595 L 0.85 28.595 L 0.85 21.817 L 12.963 21.817 L 12.963 28.595 Z M 11.997 33.151 L 1.816 33.151 C 1.283 33.151 0.85 32.717 0.85 32.185 L 0.85 29.445 L 12.963 29.445 L 12.963 32.185 C 12.963 32.717 12.529 33.151 11.997 33.151 Z M 6.189 0.85 L 7.623 0.85 L 7.623 2.258 L 6.189 2.258 L 6.189 0.85 Z M 4.742 3.108 L 9.071 3.108 C 9.155 3.108 9.224 3.176 9.224 3.261 L 9.224 5.507 L 4.589 5.507 L 4.589 3.261 C 4.589 3.177 4.657 3.108 4.742 3.108 Z M 1.366 18.082 C 1.863 17.315 1.863 16.322 1.366 15.555 C 1.028 15.034 0.85 14.429 0.85 13.806 L 0.85 9.583 C 0.85 7.804 2.297 6.357 4.075 6.357 L 9.737 6.357 C 11.516 6.357 12.963 7.804 12.963 9.583 L 12.963 13.806 C 12.963 14.429 12.785 15.034 12.447 15.555 C 11.95 16.322 11.95 17.315 12.447 18.082 C 12.785 18.603 12.963 19.208 12.963 19.831 L 12.963 20.967 L 0.85 20.967 L 0.85 19.831 C 0.85 19.208 1.028 18.603 1.366 18.082 Z" style="" transform="matrix(1.0000000000000002, 0, 0, 1.0000000000000002, 0, 7.105427357601002e-15)"/>
  <path d="M 6.959 14.605 C 8.623 14.605 9.976 13.251 9.976 11.588 C 9.976 9.924 8.623 8.571 6.959 8.571 C 5.296 8.571 3.942 9.924 3.942 11.588 C 3.942 13.252 5.296 14.605 6.959 14.605 Z M 6.959 9.421 C 8.155 9.421 9.126 10.393 9.126 11.588 C 9.126 12.783 8.155 13.755 6.959 13.755 C 5.765 13.755 4.792 12.784 4.792 11.588 C 4.792 10.393 5.765 9.421 6.959 9.421 Z" style="" transform="matrix(1.0000000000000002, 0, 0, 1.0000000000000002, 0, 7.105427357601002e-15)"/>
</svg>