<?xml version="1.0" encoding="utf-8"?>
<svg viewBox="-1.7552 0.7272 34 34" width="34" height="34" xmlns="http://www.w3.org/2000/svg">
  <g transform="matrix(2.2155840396881104, 0, 0, 2.2155840396881104, -3.5137961434393503, -1.0313940201907457)">
    <path style="color:#000000;" d="M 8.4656327,0.79375067 A 0.2645835,0.2645835 0 0 0 8.2020837,1.0573007 v 1.945101 l -1.185975,-1.064018 a 0.2645835,0.2645835 0 0 0 -0.373103,0.01964 0.2645835,0.2645835 0 0 0 0.019637,0.372588 l 1.539441,1.382344 v 2.717147 c -0.368881,0.04759 -0.707443,0.193584 -0.988571,0.410828 l -1.921329,-1.922364 0.110587,-2.066024 a 0.2645835,0.2645835 0 0 0 -0.249597,-0.277502 0.2645835,0.2645835 0 0 0 -0.279569,0.250114 l -0.084233,1.589567 -1.374593,-1.37511 a 0.2645835,0.2645835 0 0 0 -0.187586,-0.07596 0.2645835,0.2645835 0 0 0 -0.187585,0.07596 0.2645835,0.2645835 0 0 0 0,0.375171 l 1.37511,1.374593 -1.590084,0.08423 a 0.2645835,0.2645835 0 0 0 -0.249597,0.279569 0.2645835,0.2645835 0 0 0 0.276985,0.250114 l 2.066024,-0.111104 1.922364,1.92133 c -0.217255,0.281132 -0.363238,0.619678 -0.410828,0.98857 h -2.717147 l -1.381828,-1.539441 a 0.2645835,0.2645835 0 0 0 -0.183451,-0.08785 0.2645835,0.2645835 0 0 0 -0.189653,0.06873 0.2645835,0.2645835 0 0 0 -0.021187,0.373103 l 1.065568,1.185458 h -1.944584 a 0.2645835,0.2645835 0 0 0 -0.26355004,0.26355 0.2645835,0.2645835 0 0 0 0.26355004,0.265616 h 1.943034 l -1.064018,1.183391 a 0.2645835,0.2645835 0 0 0 0.021187,0.3751713 0.2645835,0.2645835 0 0 0 0.373104,-0.02119 l 1.381828,-1.5373743 h 2.717147 c 0.047831,0.367951 0.193699,0.706197 0.410311,0.98702 l -1.920813,1.9208133 -2.067058,-0.109037 a 0.2645835,0.2645835 0 0 0 -0.276985,0.250114 0.2645835,0.2645835 0 0 0 0.249597,0.277502 l 1.591117,0.08475 -1.376143,1.376143 a 0.2645835,0.2645835 0 0 0 0,0.373104 0.2645835,0.2645835 0 0 0 0.375171,0 l 1.374593,-1.374593 0.084233,1.591117 a 0.2645835,0.2645835 0 0 0 0.279569,0.250114 0.2645835,0.2645835 0 0 0 0.249597,-0.279569 l -0.110587,-2.064991 1.921846,-1.921846 c 0.281046,0.217386 0.619355,0.363683 0.988054,0.411344 v 2.71508 l -1.539441,1.381828 a 0.2645835,0.2645835 0 0 0 -0.019637,0.375171 0.2645835,0.2645835 0 0 0 0.373103,0.01964 l 1.185975,-1.066085 v 1.945101 a 0.2645835,0.2645835 0 0 0 0.263549,0.265617 0.2645835,0.2645835 0 0 0 0.265617,-0.265617 v -1.943034 l 1.18339,1.064018 a 0.2645835,0.2645835 0 0 0 0.3731043,-0.01964 0.2645835,0.2645835 0 0 0 -0.01964,-0.375171 L 8.7312497,13.218316 v -2.71508 c 0.367837,-0.04793 0.705494,-0.193905 0.985987,-0.410827 l 1.9218463,1.921846 -0.111104,2.064474 a 0.2645835,0.2645835 0 0 0 0.252181,0.279569 0.2645835,0.2645835 0 0 0 0.276985,-0.250114 l 0.08475,-1.591117 1.374593,1.374593 a 0.2645835,0.2645835 0 0 0 0.374654,0 0.2645835,0.2645835 0 0 0 0,-0.373104 l -1.376143,-1.376143 1.591117,-0.08475 a 0.2645835,0.2645835 0 0 0 0.252181,-0.277502 0.2645835,0.2645835 0 0 0 -0.27957,-0.250114 l -2.06654,0.109037 -1.92133,-1.9213293 c 0.216474,-0.28076 0.362498,-0.618695 0.410311,-0.986504 h 2.717147 l 1.381828,1.5368583 a 0.2645835,0.2645835 0 0 0 0.375171,0.0217 0.2645835,0.2645835 0 0 0 0.01964,-0.3751713 l -1.064018,-1.183391 h 1.942517 a 0.2645835,0.2645835 0 0 0 0.266134,-0.265616 0.2645835,0.2645835 0 0 0 -0.266134,-0.26355 h -1.944067 l 1.065568,-1.185458 a 0.2645835,0.2645835 0 0 0 -0.01964,-0.373103 0.2645835,0.2645835 0 0 0 -0.191203,-0.06873 0.2645835,0.2645835 0 0 0 -0.183968,0.08785 l -1.381828,1.539441 h -2.717147 c -0.04757,-0.36875 -0.193712,-0.706985 -0.410828,-0.988054 l 1.922364,-1.921846 2.066023,0.111104 a 0.2645835,0.2645835 0 0 0 0.27957,-0.250114 0.2645835,0.2645835 0 0 0 -0.252181,-0.279569 l -1.590084,-0.08423 1.37511,-1.374593 a 0.2645835,0.2645835 0 0 0 0,-0.375171 0.2645835,0.2645835 0 0 0 -0.374654,0 l -1.374593,1.37511 -0.08475,-1.589567 a 0.2645835,0.2645835 0 0 0 -0.276985,-0.250113 0.2645835,0.2645835 0 0 0 -0.252181,0.277502 l 0.111104,2.065507 -1.9218463,1.922881 c -0.28056,-0.216748 -0.618002,-0.362971 -0.985987,-0.410828 v -2.717147 l 1.5368573,-1.382344 a 0.2645835,0.2645835 0 0 0 0.01964,-0.372588 0.2645835,0.2645835 0 0 0 -0.3731043,-0.01964 l -1.18339,1.062468 V 1.0572977 A 0.2645835,0.2645835 0 0 0 8.4656357,0.79374767 Z m 0,6.14846203 c 0.420606,0 0.79991,0.168196 1.07487,0.441317 a 0.2645835,0.2645835 0 0 0 0.0031,0.0041 0.2645835,0.2645835 0 0 0 0.00465,0.0036 c 0.272793,0.274915 0.4408,0.654033 0.4408,1.074353 0,0.41836 -0.166637,0.796169 -0.437183,1.071252 a 0.2645835,0.2645835 0 0 0 -0.00827,0.0067 0.2645835,0.2645835 0 0 0 -0.00723,0.0088 c -0.274643,0.271332 -0.652112,0.438733 -1.070736,0.438733 -0.413919,0 -0.78811,-0.163474 -1.06195,-0.429431 a 0.2645835,0.2645835 0 0 0 -0.016537,-0.01809 0.2645835,0.2645835 0 0 0 -0.00672,-0.0057 c -0.271191,-0.275176 -0.438216,-0.653363 -0.438216,-1.072286 0,-0.421133 0.168624,-0.800861 0.44235,-1.075904 0.00259,-0.0026 0.00514,-0.0052 0.00775,-0.0078 0.27483,-0.272181 0.653533,-0.439767 1.073319,-0.439767 z" fill="#000000" stroke-linecap="round" stroke-linejoin="round"/>
  </g>
</svg>