<?xml version="1.0"?>
<svg width="34" height="34" xmlns="http://www.w3.org/2000/svg" xmlns:svg="http://www.w3.org/2000/svg" enable-background="new 0 0 100 100" version="1.1" xml:space="preserve">

 <g class="layer">
  <title>Layer 1</title>
  <g id="svg_1">
   <path d="m15.72,12.24c0.21,0 0.38,-0.17 0.38,-0.38s-0.17,-0.38 -0.38,-0.38c-0.35,0 -0.62,-0.28 -0.62,-0.63s0.28,-0.63 0.62,-0.63c0.21,0 0.38,-0.17 0.38,-0.38s-0.17,-0.38 -0.38,-0.38c-0.77,0 -1.39,0.63 -1.39,1.4s0.62,1.4 1.39,1.4z" id="svg_2"/>
   <path d="m27.51,21c0.45,-2.68 -0.54,-6.7 -4.56,-10.07c-0.22,-0.29 -0.45,-0.57 -0.71,-0.84l-3.34,-3.32c-0.59,-0.6 -1.41,-0.88 -2.25,-0.78c-0.19,0.02 -0.34,0.18 -0.34,0.38l0,0.82l-0.09,-0.06c-0.54,-0.38 -1.26,-0.31 -1.73,0.16l-2.72,2.8c-0.21,0.22 -0.41,0.45 -0.59,0.68c-4.18,3.4 -5.2,7.51 -4.75,10.23c0.19,1.17 0.66,2.02 1.2,2.21c0.08,0.03 0.17,0.05 0.25,0.05c0.18,0 0.35,-0.07 0.5,-0.2c1.62,-1.45 3.55,-1.39 3.98,-1.35c0.65,0.63 1.21,1.17 1.63,1.56c-0.62,0.09 -1.44,0.37 -2.13,1.29c-0.74,0.98 -1.5,1.12 -1.53,1.12c-0.17,0.03 -0.3,0.16 -0.32,0.33c-0.02,0.17 0.07,0.33 0.22,0.4c0.22,0.1 4.98,2.23 6.77,0.02c0.62,0.75 1.57,1 2.56,1c1.94,0 4.05,-0.96 4.19,-1.03c0.15,-0.07 0.24,-0.23 0.21,-0.4c-0.02,-0.17 -0.15,-0.3 -0.31,-0.33c-0.03,0 -0.8,-0.15 -1.54,-1.12c-0.69,-0.91 -1.5,-1.19 -2.13,-1.29c0.36,-0.33 0.82,-0.76 1.34,-1.27c0.46,-0.09 2.6,-0.39 4.21,1.06c0.14,0.13 0.32,0.2 0.5,0.2c0.08,0 0.17,-0.02 0.25,-0.05c0.55,-0.19 1.01,-1.04 1.2,-2.21zm-12.48,-13.17c0.2,-0.21 0.52,-0.23 0.75,-0.07l0.69,0.48c0.12,0.08 0.27,0.09 0.4,0.03c0.13,-0.07 0.2,-0.2 0.2,-0.34l0,-1.19c0.48,0.02 0.94,0.22 1.3,0.58l3.34,3.32c0.09,0.1 0.18,0.2 0.26,0.3l-1.81,1.82c-0.85,0.86 -1.98,1.33 -3.18,1.33c-1.2,0 -2.33,-0.47 -3.18,-1.33l-1.77,-1.79c0.1,-0.11 0.19,-0.23 0.3,-0.33l2.72,-2.81zm-7.14,14.66c-0.1,-0.02 -0.42,-0.35 -0.63,-1.23c-0.5,-2.07 0.01,-5.29 2.71,-8.29c-0.95,2.68 -0.41,5.77 1.63,7.97c-0.94,0.06 -2.41,0.37 -3.71,1.55zm11,1.46c0.11,0.04 0.24,0.04 0.42,0.04c0.51,0.01 1.45,0.02 2.22,1.03c0.37,0.48 0.75,0.81 1.09,1.02c-1.46,0.53 -4.4,1.31 -5.26,-0.49c-0.06,-0.13 -0.2,-0.22 -0.34,-0.22c0,0 0,0 0,0c-0.15,0 -0.28,0.09 -0.34,0.22c-0.82,1.79 -3.79,1 -5.26,0.48c0.33,-0.21 0.71,-0.53 1.08,-1.01c0.77,-1.01 1.71,-1.02 2.22,-1.03c0.18,0 0.3,0 0.42,-0.04c0.14,-0.05 0.25,-0.18 0.26,-0.33c0.01,-0.15 -0.07,-0.3 -0.2,-0.37c-0.29,-0.15 -1.8,-1.63 -2.61,-2.42l-0.25,-0.25c-2.43,-2.45 -2.68,-6.27 -0.77,-9.01l1.71,1.72c0.99,1.01 2.32,1.55 3.72,1.55c1.41,0 2.73,-0.55 3.73,-1.55l1.75,-1.76c1.94,2.75 1.69,6.58 -0.74,9.04l-0.26,0.25c-0.81,0.79 -2.32,2.27 -2.61,2.42c-0.13,0.07 -0.21,0.22 -0.2,0.37c0.01,0.15 0.11,0.28 0.26,0.33zm7.16,-1.47c-1.29,-1.16 -2.82,-1.36 -3.84,-1.34l0.02,-0.02c2.15,-2.17 2.76,-5.3 1.84,-8.02c2.61,2.96 3.09,6.12 2.59,8.16c-0.21,0.88 -0.54,1.21 -0.62,1.22z" id="svg_3"/>
   <path d="m2.92,8.27l0,2.05c0,0.74 0.6,1.34 1.33,1.34l2.04,0c0.74,0 1.33,-0.6 1.33,-1.34l0,-2.05c0,-0.74 -0.6,-1.34 -1.33,-1.34l-2.04,0c-0.74,0 -1.33,0.6 -1.33,1.34zm0.76,0c0,-0.32 0.26,-0.58 0.57,-0.58l2.04,0c0.32,0 0.57,0.26 0.57,0.58l0,2.05c0,0.32 -0.26,0.58 -0.57,0.58l-2.04,0c-0.32,0 -0.57,-0.26 -0.57,-0.58l0,-2.05z" id="svg_4"/>
   <path d="m30.87,2.95l-2.04,0c-0.74,0 -1.33,0.61 -1.33,1.35l0,2.05c0,0.74 0.6,1.34 1.33,1.34l2.04,0c0.74,0 1.33,-0.6 1.33,-1.34l0,-2.05c0,-0.74 -0.6,-1.35 -1.33,-1.35zm0.57,3.4c0,0.32 -0.26,0.58 -0.57,0.58l-2.04,0c-0.32,0 -0.57,-0.26 -0.57,-0.58l0,-2.05c0,-0.32 0.26,-0.58 0.57,-0.58l2.04,0c0.32,0 0.57,0.26 0.57,0.58l0,2.05z" id="svg_5"/>
   <path d="m10.55,27.61l-2.04,0c-0.74,0 -1.33,0.6 -1.33,1.34l0,2.05c0,0.74 0.6,1.34 1.33,1.34l2.04,0c0.74,0 1.33,-0.6 1.33,-1.34l0,-2.05c0,-0.74 -0.6,-1.34 -1.33,-1.34zm0.57,3.4c0,0.32 -0.26,0.58 -0.57,0.58l-2.04,0c-0.32,0 -0.57,-0.26 -0.57,-0.58l0,-2.05c0,-0.32 0.26,-0.58 0.57,-0.58l2.04,0c0.32,0 0.57,0.26 0.57,0.58l0,2.05z" id="svg_6"/>
   <path d="m11.2,7.23c0.34,0 0.68,-0.13 0.94,-0.4l1.44,-1.45c0.25,-0.25 0.39,-0.59 0.39,-0.95s-0.14,-0.7 -0.39,-0.95l-1.44,-1.45c-0.52,-0.53 -1.37,-0.53 -1.89,0l-1.44,1.45c-0.52,0.52 -0.52,1.38 0,1.9l1.44,1.45c0.26,0.26 0.6,0.4 0.94,0.4zm-1.85,-3.21l1.44,-1.45c0.11,-0.11 0.26,-0.17 0.4,-0.17s0.29,0.06 0.4,0.17l1.44,1.45c0.11,0.11 0.17,0.25 0.17,0.41s-0.06,0.3 -0.17,0.41l-1.44,1.45c-0.22,0.22 -0.59,0.23 -0.81,0l-1.44,-1.45c-0.22,-0.23 -0.22,-0.59 0,-0.82z" id="svg_7"/>
   <path d="m22.84,7.7c0.36,0 0.69,-0.14 0.94,-0.4l1.44,-1.45c0,0 0,0 0,0c0.25,-0.25 0.39,-0.59 0.39,-0.95s-0.14,-0.69 -0.39,-0.95l-1.44,-1.46c-0.5,-0.51 -1.38,-0.51 -1.89,0l-1.44,1.46c-0.25,0.25 -0.39,0.59 -0.39,0.95s0.14,0.7 0.39,0.95l1.44,1.45c0.25,0.26 0.59,0.4 0.94,0.4zm-2.01,-2.8c0,-0.15 0.06,-0.3 0.17,-0.41l1.44,-1.45c0.11,-0.11 0.25,-0.17 0.4,-0.17s0.3,0.06 0.4,0.17l1.44,1.45c0.11,0.11 0.17,0.25 0.17,0.41s-0.06,0.3 -0.17,0.41l-1.44,1.45c-0.21,0.22 -0.59,0.22 -0.81,0l-1.44,-1.45c-0.11,-0.11 -0.17,-0.26 -0.17,-0.41z" id="svg_8"/>
   <path d="m5.25,23.6c-0.5,-0.51 -1.38,-0.51 -1.89,0l-1.44,1.45c-0.52,0.52 -0.52,1.38 0,1.9l1.44,1.45c0.25,0.26 0.59,0.4 0.94,0.4s0.69,-0.14 0.94,-0.4l1.44,-1.45c0,0 0,0 0,0c0.25,-0.25 0.39,-0.59 0.39,-0.95s-0.14,-0.69 -0.39,-0.95l-1.44,-1.45zm0.9,2.81l-1.44,1.45c-0.22,0.22 -0.59,0.22 -0.81,0l-1.44,-1.45c-0.22,-0.23 -0.22,-0.59 0,-0.82l1.44,-1.45c0.11,-0.11 0.25,-0.17 0.4,-0.17s0.3,0.06 0.41,0.17l1.44,1.45c0.11,0.11 0.17,0.25 0.17,0.41s-0.06,0.3 -0.17,0.41z" id="svg_9"/>
   <path d="m30.37,10.13c-0.52,-0.52 -1.37,-0.52 -1.89,0l-1.44,1.46c-0.26,0.25 -0.39,0.59 -0.39,0.95s0.14,0.7 0.39,0.95l1.44,1.45c0.25,0.25 0.59,0.4 0.94,0.4s0.69,-0.14 0.94,-0.4l1.44,-1.45c0.26,-0.25 0.39,-0.59 0.39,-0.95s-0.14,-0.69 -0.39,-0.95l-1.44,-1.46zm0.9,2.81l-1.44,1.46c-0.22,0.22 -0.59,0.22 -0.81,0l-1.44,-1.46c-0.11,-0.11 -0.17,-0.25 -0.17,-0.41s0.06,-0.3 0.17,-0.41l1.44,-1.45c0.11,-0.12 0.26,-0.17 0.4,-0.17s0.29,0.05 0.41,0.17l1.44,1.45c0.11,0.11 0.17,0.25 0.17,0.41s-0.06,0.3 -0.17,0.41z" id="svg_10"/>
   <path d="m30.37,23.84c-0.52,-0.52 -1.37,-0.52 -1.89,0l-1.44,1.45c-0.26,0.26 -0.39,0.6 -0.39,0.95s0.14,0.7 0.39,0.95l1.44,1.45c0.25,0.25 0.59,0.4 0.94,0.4s0.69,-0.14 0.94,-0.4l1.44,-1.45c0.26,-0.25 0.39,-0.59 0.39,-0.95s-0.14,-0.69 -0.39,-0.95l-1.44,-1.45zm0.9,2.81l-1.44,1.46c-0.22,0.22 -0.59,0.22 -0.81,0l-1.44,-1.46c-0.11,-0.11 -0.17,-0.25 -0.17,-0.41s0.06,-0.3 0.17,-0.41l1.44,-1.45c0.11,-0.12 0.26,-0.17 0.4,-0.17s0.29,0.05 0.41,0.17l1.44,1.45c0.11,0.11 0.17,0.25 0.17,0.41s-0.06,0.3 -0.17,0.41z" id="svg_11"/>
   <path d="m1.73,20.69c0,0.21 0.17,0.38 0.38,0.38l1.82,0c0.21,0 0.38,-0.17 0.38,-0.38s-0.17,-0.38 -0.38,-0.38l-1.82,0c-0.21,0 -0.38,0.17 -0.38,0.38z" id="svg_12"/>
   <path d="m3.4,14.18c-0.21,0 -0.38,0.17 -0.38,0.38s0.17,0.38 0.38,0.38l1.82,0c0.21,0 0.38,-0.17 0.38,-0.38s-0.17,-0.38 -0.38,-0.38l-1.82,0z" id="svg_13"/>
   <path d="m25.03,29.6l-1.82,0c-0.21,0 -0.38,0.17 -0.38,0.38s0.17,0.38 0.38,0.38l1.82,0c0.21,0 0.38,-0.17 0.38,-0.38s-0.17,-0.38 -0.38,-0.38z" id="svg_14"/>
   <path d="m23.35,31.59l-1.82,0c-0.21,0 -0.38,0.17 -0.38,0.38s0.17,0.38 0.38,0.38l1.82,0c0.21,0 0.38,-0.17 0.38,-0.38s-0.17,-0.38 -0.38,-0.38z" id="svg_15"/>
   <path d="m6.18,4.61c0.21,0 0.38,-0.17 0.38,-0.38s-0.17,-0.38 -0.38,-0.38l-1.82,0c-0.21,0 -0.38,0.17 -0.38,0.38s0.17,0.38 0.38,0.38l1.82,0z" id="svg_16"/>
   <path d="m17.91,29.06l-1.82,0c-0.21,0 -0.38,0.17 -0.38,0.38s0.17,0.38 0.38,0.38l1.82,0c0.21,0 0.38,-0.17 0.38,-0.38s-0.17,-0.38 -0.38,-0.38z" id="svg_17"/>
   <path d="m31.82,19.37l-1.82,0c-0.21,0 -0.38,0.17 -0.38,0.38s0.17,0.38 0.38,0.38l1.82,0c0.21,0 0.38,-0.17 0.38,-0.38s-0.17,-0.38 -0.38,-0.38z" id="svg_18"/>
   <path d="m18.61,4.35c0.21,0 0.38,-0.17 0.38,-0.38s-0.17,-0.38 -0.38,-0.38l-1.82,0c-0.21,0 -0.38,0.17 -0.38,0.38s0.17,0.38 0.38,0.38l1.82,0z" id="svg_19"/>
  </g>
 </g>
</svg>