<?xml version="1.0"?>
<svg width="34" height="34" xmlns="http://www.w3.org/2000/svg" xmlns:svg="http://www.w3.org/2000/svg" enable-background="new 0 0 100 100" version="1.1" xml:space="preserve">

 <g class="layer">
  <title>Layer 1</title>
  <g id="svg_10">
   <path d="m8.05,9.25c0.62,0.35 1.01,1 1.01,1.71l0,0.86c0,0.21 0.17,0.38 0.38,0.38s0.38,-0.17 0.38,-0.38l0,-0.86c0,-0.99 -0.54,-1.89 -1.41,-2.37c-0.18,-0.1 -0.41,-0.03 -0.51,0.15s-0.04,0.41 0.15,0.52z" id="svg_1"/>
   <path d="m8.41,27.57c0.78,0 1.42,-0.64 1.42,-1.42l0,-3.84c0,-0.21 -0.17,-0.38 -0.38,-0.38s-0.38,0.17 -0.38,0.38l0,3.84c0,0.36 -0.29,0.65 -0.65,0.65c-0.21,0 -0.38,0.17 -0.38,0.38s0.17,0.38 0.38,0.38z" id="svg_2"/>
   <path d="m18.53,9.25c0.62,0.35 1.02,1 1.02,1.71l0,0.86c0,0.21 0.17,0.38 0.38,0.38s0.38,-0.17 0.38,-0.38l0,-0.86c0,-0.99 -0.54,-1.89 -1.41,-2.37c-0.18,-0.1 -0.41,-0.03 -0.52,0.15c-0.1,0.19 -0.03,0.41 0.15,0.52z" id="svg_3"/>
   <path d="m18.88,27.57c0.78,0 1.42,-0.64 1.42,-1.42l0,-3.84c0,-0.21 -0.17,-0.38 -0.38,-0.38s-0.38,0.17 -0.38,0.38l0,3.84c0,0.36 -0.3,0.65 -0.66,0.65c-0.21,0 -0.38,0.17 -0.38,0.38s0.17,0.38 0.38,0.38z" id="svg_4"/>
   <path d="m32.37,12.53l0,-1.62c0,-1.73 -0.94,-3.32 -2.46,-4.16c-0.27,-0.15 -0.45,-0.44 -0.45,-0.76l0,-0.67c0.35,-0.1 0.61,-0.41 0.61,-0.79l0,-1.73c0,-0.45 -0.37,-0.82 -0.82,-0.82l-3.28,0c-0.45,0 -0.82,0.37 -0.82,0.82l0,1.73c0,0.41 0.3,0.75 0.7,0.81l0,0.51c0,0.37 -0.21,0.72 -0.54,0.91c-1.51,0.84 -2.45,2.43 -2.45,4.15l0,1.62c0,0.45 0.25,0.83 0.63,1.02l0,6.4c-0.37,0.19 -0.63,0.58 -0.63,1.02l0,5.64c0,0.77 0.33,1.47 0.86,1.96l-2.67,0c0.52,-0.49 0.86,-1.19 0.86,-1.96l0,-5.64c0,-0.45 -0.26,-0.83 -0.63,-1.02l0,-6.4c0.37,-0.19 0.63,-0.57 0.63,-1.02l0,-1.62c0,-1.73 -0.94,-3.32 -2.46,-4.16c-0.27,-0.15 -0.44,-0.44 -0.44,-0.76l0,-0.67c0.35,-0.1 0.6,-0.41 0.6,-0.79l0,-1.73c0,-0.45 -0.37,-0.82 -0.82,-0.82l-3.28,0c-0.45,0 -0.82,0.37 -0.82,0.82l0,1.73c0,0.41 0.3,0.75 0.7,0.81l0,0.51c0,0.37 -0.21,0.72 -0.55,0.9c-1.51,0.84 -2.45,2.43 -2.45,4.15l0,1.62c0,0.45 0.26,0.83 0.63,1.02l0,6.4c-0.37,0.19 -0.63,0.57 -0.63,1.02l0,5.63c0,0.78 0.33,1.47 0.86,1.96l-2.67,0c0.52,-0.49 0.86,-1.19 0.86,-1.96l0,-5.63c0,-0.45 -0.25,-0.83 -0.63,-1.02l0,-6.4c0.37,-0.19 0.63,-0.57 0.63,-1.02l0,-1.62c0,-1.73 -0.94,-3.32 -2.46,-4.16c-0.27,-0.15 -0.44,-0.44 -0.44,-0.76l0,-0.67c0.35,-0.1 0.61,-0.41 0.61,-0.79l0,-1.73c0,-0.45 -0.37,-0.82 -0.82,-0.82l-3.28,0c-0.45,0 -0.82,0.37 -0.82,0.82l0,1.73c0,0.41 0.3,0.75 0.7,0.81l0,0.51c0,0.37 -0.21,0.72 -0.55,0.9c-1.51,0.84 -2.45,2.43 -2.45,4.15l0,1.62c0,0.45 0.26,0.83 0.63,1.02l0,6.4c-0.37,0.19 -0.63,0.58 -0.63,1.02l0,5.64c0,0.77 0.33,1.47 0.86,1.96l-0.46,0c-0.21,0 -0.38,0.17 -0.38,0.38l0,3.09c0,0.21 0.17,0.38 0.38,0.38l29.67,0c0.21,0 0.38,-0.17 0.38,-0.38l0,-3.09c0,-0.21 -0.17,-0.38 -0.38,-0.38l-0.46,0c0.52,-0.49 0.86,-1.19 0.86,-1.96l0,-5.64c0,-0.45 -0.26,-0.83 -0.63,-1.02l0,-6.4c0.37,-0.19 0.63,-0.57 0.63,-1.02zm-11.86,1.15l0,6.13l-6.74,0l0,-6.13l6.74,0zm-5.07,-10.88c0,-0.03 0.03,-0.06 0.06,-0.06l3.28,0c0.03,0 0.06,0.03 0.06,0.06l0,1.73c0,0.03 -0.03,0.06 -0.06,0.06l-3.28,0c-0.03,0 -0.06,-0.03 -0.06,-0.06l0,-1.73zm-2.3,8.1c0,-1.45 0.79,-2.78 2.06,-3.48c0.58,-0.32 0.94,-0.92 0.94,-1.57l0,-0.5l2.09,0l0,0.64c0,0.59 0.32,1.14 0.84,1.42c1.27,0.7 2.07,2.04 2.07,3.49l0,1.62c0,0.22 -0.18,0.39 -0.4,0.39l-7.2,0c-0.22,0 -0.4,-0.17 -0.4,-0.39l0,-1.62l0,0zm0,15.7l0,-5.64c0,-0.22 0.18,-0.4 0.4,-0.4l7.2,0c0.22,0 0.4,0.18 0.4,0.4l0,5.64c0,1.06 -0.87,1.93 -1.93,1.93l-4.13,0c-1.07,0 -1.94,-0.86 -1.94,-1.93zm-3.11,-12.93l0,6.13l-6.74,0l0,-6.13l6.74,0zm-5.06,-10.88c0,-0.03 0.02,-0.06 0.06,-0.06l3.28,0c0.03,0 0.06,0.03 0.06,0.06l0,1.73c0,0.03 -0.03,0.06 -0.06,0.06l-3.28,0c-0.03,0 -0.06,-0.03 -0.06,-0.06l0,-1.73zm-2.3,8.1c0,-1.45 0.79,-2.78 2.06,-3.48c0.58,-0.32 0.94,-0.92 0.94,-1.57l0,-0.5l2.1,0l0,0.64c0,0.59 0.32,1.14 0.83,1.42c1.28,0.7 2.07,2.04 2.07,3.49l0,1.62c0,0.22 -0.18,0.39 -0.4,0.39l-7.2,0c-0.22,0 -0.4,-0.17 -0.4,-0.39l0,-1.62zm0,15.7l0,-5.64c0,-0.22 0.18,-0.4 0.4,-0.4l7.2,0c0.22,0 0.4,0.18 0.4,0.4l0,5.64c0,1.06 -0.87,1.93 -1.94,1.93l-4.13,0c-1.07,0 -1.93,-0.86 -1.93,-1.93zm28.92,5.05l-28.91,0l0,-2.33l28.91,0l0,2.33zm-7.35,-11.85l0,-6.13l6.74,0l0,6.13l-6.74,0zm1.67,-17.01c0,-0.03 0.03,-0.06 0.06,-0.06l3.28,0c0.03,0 0.06,0.03 0.06,0.06l0,1.73c0,0.03 -0.03,0.06 -0.06,0.06l-3.28,0c-0.03,0 -0.06,-0.03 -0.06,-0.06l0,-1.73zm-2.3,8.1c0,-1.45 0.79,-2.78 2.06,-3.48c0.58,-0.32 0.94,-0.92 0.94,-1.57l0,-0.5l2.09,0l0,0.64c0,0.59 0.32,1.14 0.84,1.42c1.28,0.7 2.07,2.04 2.07,3.49l0,1.62c0,0.22 -0.17,0.39 -0.4,0.39l-7.2,0c-0.22,0 -0.4,-0.17 -0.4,-0.39l0,-1.62zm7.99,15.7c0,1.06 -0.87,1.93 -1.93,1.93l-4.13,0c-1.07,0 -1.93,-0.87 -1.93,-1.93l0,-5.64c0,-0.22 0.17,-0.4 0.4,-0.4l7.2,0c0.22,0 0.4,0.18 0.4,0.4l0,5.64l0,0z" id="svg_5"/>
   <path d="m29,9.25c0.62,0.35 1.01,1 1.01,1.71l0,0.86c0,0.21 0.17,0.38 0.38,0.38s0.38,-0.17 0.38,-0.38l0,-0.86c0,-0.99 -0.54,-1.89 -1.41,-2.37c-0.18,-0.1 -0.41,-0.03 -0.51,0.15c-0.1,0.19 -0.04,0.41 0.15,0.52z" id="svg_6"/>
   <path d="m30.39,21.93c-0.21,0 -0.38,0.17 -0.38,0.38l0,3.84c0,0.36 -0.29,0.65 -0.65,0.65c-0.21,0 -0.38,0.17 -0.38,0.38s0.17,0.38 0.38,0.38c0.78,0 1.42,-0.64 1.42,-1.42l0,-3.84c0,-0.21 -0.17,-0.38 -0.38,-0.38z" id="svg_7"/>
  </g>
 </g>
</svg>