<?xml version="1.0" encoding="utf-8"?>
<svg viewBox="0 0 34 34" width="34" height="34" xmlns="http://www.w3.org/2000/svg">
  <g transform="matrix(0.9999999999999999, 0, 0, 0.9999999999999999, 5.38000019460916, 1.2339999859631021)">
    <path d="M 27.982 3.066 L -4.742 3.066 C -5.095 3.066 -5.38 3.352 -5.38 3.704 L -5.38 9.51 C -5.38 9.701 -5.294 9.883 -5.146 10.005 C -4.997 10.127 -4.802 10.174 -4.614 10.135 C -4.392 10.09 -4.164 10.067 -3.935 10.067 C -2.079 10.067 -0.568 11.577 -0.568 13.434 C -0.568 15.29 -2.079 16.801 -3.935 16.801 C -4.164 16.801 -4.392 16.778 -4.614 16.732 C -4.802 16.693 -4.997 16.741 -5.146 16.863 C -5.294 16.984 -5.38 17.166 -5.38 17.357 L -5.38 27.849 C -5.38 28.201 -5.095 28.487 -4.742 28.487 L 13.149 28.487 C 13.334 28.487 13.509 28.407 13.63 28.268 C 13.751 28.129 13.807 27.944 13.781 27.762 C 13.766 27.652 13.755 27.541 13.755 27.427 C 13.755 26.089 14.844 25 16.182 25 C 17.52 25 18.608 26.089 18.608 27.427 C 18.608 27.541 18.598 27.652 18.582 27.762 C 18.557 27.944 18.612 28.129 18.734 28.268 C 18.855 28.407 19.03 28.487 19.215 28.487 L 27.982 28.487 C 28.334 28.487 28.62 28.201 28.62 27.849 L 28.62 16.939 C 28.62 16.743 28.529 16.557 28.375 16.436 C 28.22 16.315 28.019 16.272 27.828 16.319 C 26.209 16.72 24.816 15.493 24.816 13.967 C 24.816 12.441 26.208 11.212 27.828 11.615 C 28.018 11.661 28.22 11.618 28.375 11.497 C 28.529 11.377 28.62 11.191 28.62 10.995 L 28.62 3.704 C 28.62 3.352 28.334 3.066 27.982 3.066 Z M 27.343 10.264 C 25.269 10.206 23.539 11.891 23.539 13.967 C 23.539 16.042 25.265 17.72 27.343 17.669 L 27.343 27.21 L 19.88 27.21 C 19.767 25.268 18.151 23.723 16.182 23.723 C 14.213 23.723 12.598 25.268 12.485 27.21 L -4.103 27.21 L -4.103 18.075 C -1.486 18.174 0.709 16.05 0.709 13.434 C 0.709 10.817 -1.483 8.699 -4.103 8.793 L -4.103 4.343 L 27.343 4.343 L 27.343 10.264 Z" style="transform-origin: 0px 15.7765px;"/>
    <path d="M 15.713 15.263 C 17.923 15.263 19.721 13.465 19.721 11.255 C 19.721 9.046 17.923 7.248 15.713 7.248 C 13.504 7.248 11.706 9.046 11.706 11.255 C 11.706 13.465 13.504 15.263 15.713 15.263 Z M 15.713 8.525 C 17.22 8.525 18.444 9.749 18.444 11.255 C 18.444 12.761 17.22 13.986 15.713 13.986 C 14.208 13.986 12.983 12.761 12.983 11.255 C 12.983 9.749 14.208 8.525 15.713 8.525 Z" style="transform-origin: 0px 15.7765px;"/>
    <path d="M 7.219 23.545 C 9.699 23.545 11.716 21.528 11.716 19.048 C 11.716 16.568 9.699 14.551 7.219 14.551 C 4.739 14.551 2.721 16.568 2.721 19.048 C 2.721 21.528 4.739 23.545 7.219 23.545 Z M 7.219 15.828 C 8.994 15.828 10.439 17.273 10.439 19.048 C 10.439 20.823 8.994 22.268 7.219 22.268 C 5.443 22.268 3.998 20.823 3.998 19.048 C 3.998 17.273 5.443 15.828 7.219 15.828 Z" style="transform-origin: 0px 15.7765px;"/>
  </g>
</svg>