<?xml version="1.0" encoding="utf-8"?>
<svg viewBox="0 0 34 34" width="34" height="34" xmlns="http://www.w3.org/2000/svg">
  <g transform="matrix(0.42500001192092896, 0, 0, 0.42500001192092896, -4.312732283960763, -4.250000063329921)">
    <path d="M32.6210938,90h34.7578125c6.5537109,0,11.8852539-5.331543,11.8852539-11.8847656V21.8847656   C79.2641602,15.331543,73.9326172,10,67.3789062,10H32.6210938c-6.5537109,0-11.8852539,5.331543-11.8852539,11.8847656v56.2304688   C20.7358398,84.668457,26.0673828,90,32.6210938,90z M22.7358398,46.1879883h54.5283203v28.8125H22.7358398V46.1879883z    M32.6210938,12h34.7578125c5.4506836,0,9.8852539,4.434082,9.8852539,9.8847656v22.3032227H22.7358398V21.8847656   C22.7358398,16.434082,27.1704102,12,32.6210938,12z M22.7358398,77.0004883h54.5283203v1.1147461   C77.2641602,83.565918,72.8295898,88,67.3789062,88H32.6210938c-5.4506836,0-9.8852539-4.434082-9.8852539-9.8847656V77.0004883z"/>
    <path d="M51.637207,53.1904297H30.0791016c-0.5522461,0-1,0.4477539-1,1v12.8081055c0,0.5522461,0.4477539,1,1,1H51.637207   c0.5522461,0,1-0.4477539,1-1V54.1904297C52.637207,53.6381836,52.1894531,53.1904297,51.637207,53.1904297z M50.637207,65.9985352   H31.0791016V55.1904297H50.637207V65.9985352z"/>
    <path d="M59.0615234,55.1904297h10.859375c0.5522461,0,1-0.4477539,1-1s-0.4477539-1-1-1h-10.859375c-0.5522461,0-1,0.4477539-1,1   S58.5092773,55.1904297,59.0615234,55.1904297z"/>
    <path d="M69.9208984,59.5942383h-10.859375c-0.5522461,0-1,0.4477539-1,1s0.4477539,1,1,1h10.859375c0.5522461,0,1-0.4477539,1-1   S70.4731445,59.5942383,69.9208984,59.5942383z"/>
    <path d="M69.9208984,65.9985352h-10.859375c-0.5522461,0-1,0.4477539-1,1s0.4477539,1,1,1h10.859375c0.5522461,0,1-0.4477539,1-1   S70.4731445,65.9985352,69.9208984,65.9985352z"/>
  </g>
</svg>