<?xml version="1.0"?>
<svg width="34" height="34" xmlns="http://www.w3.org/2000/svg" xmlns:svg="http://www.w3.org/2000/svg" enable-background="new 0 0 100 100" version="1.1" xml:space="preserve">
 <title>63db9d643ff62100422bb2e6</title>

 <g class="layer">
  <title>Layer 1</title>
  <g id="svg_1">
   <path d="m21.92,6.69l0.97,0c0.21,0 0.38,-0.17 0.38,-0.38s-0.17,-0.38 -0.38,-0.38l-0.97,0c-0.21,0 -0.38,0.17 -0.38,0.38s0.17,0.38 0.38,0.38z" id="svg_2"/>
   <path d="m19.21,6.69l0.98,0c0.21,0 0.38,-0.17 0.38,-0.38s-0.17,-0.38 -0.38,-0.38l-0.98,0c-0.21,0 -0.38,0.17 -0.38,0.38s0.17,0.38 0.38,0.38z" id="svg_3"/>
   <path d="m16.49,6.69l0.98,0c0.21,0 0.38,-0.17 0.38,-0.38s-0.17,-0.38 -0.38,-0.38l-0.98,0c-0.21,0 -0.38,0.17 -0.38,0.38s0.17,0.38 0.38,0.38z" id="svg_4"/>
   <path d="m13.78,6.69l0.98,0c0.21,0 0.38,-0.17 0.38,-0.38s-0.17,-0.38 -0.38,-0.38l-0.98,0c-0.21,0 -0.38,0.17 -0.38,0.38s0.17,0.38 0.38,0.38z" id="svg_5"/>
   <path d="m11.07,6.69l0.97,0c0.21,0 0.38,-0.17 0.38,-0.38s-0.17,-0.38 -0.38,-0.38l-0.97,0c-0.21,0 -0.38,0.17 -0.38,0.38s0.17,0.38 0.38,0.38z" id="svg_6"/>
   <path d="m27.33,32.6c0.21,0 0.38,-0.17 0.38,-0.38l0,-20.98c0,-1.1 -0.21,-2.18 -0.65,-3.23l-0.9,-1.81l0,-3.77c0,-0.12 -0.06,-0.23 -0.15,-0.31c-0.1,-0.07 -0.22,-0.1 -0.34,-0.06l-2.78,0.81l-2.84,-0.81c-0.07,-0.02 -0.14,-0.02 -0.21,0l-2.84,0.81l-2.83,-0.81c-0.07,-0.02 -0.14,-0.02 -0.21,0l-2.83,0.81l-2.83,-0.81c-0.11,-0.03 -0.24,-0.01 -0.34,0.06c-0.1,0.07 -0.15,0.19 -0.15,0.31l0,3.77l-0.92,1.83c-0.42,1.02 -0.63,2.1 -0.63,3.2l0,20.98c0,0.21 0.17,0.38 0.38,0.38l20.69,0zm-20.31,-21.36c0,-1 0.19,-1.98 0.56,-2.89l0.84,-1.67l0.85,0c0.21,0 0.38,-0.17 0.38,-0.38s-0.17,-0.38 -0.38,-0.38l-0.7,0l0,-2.98l2.45,0.71c0.07,0.02 0.14,0.02 0.21,0l2.84,-0.82l2.83,0.82c0.07,0.02 0.15,0.02 0.21,0l2.83,-0.82l2.84,0.82c0.07,0.02 0.15,0.02 0.21,0l2.4,-0.7l0,2.98l-0.76,0c-0.21,0 -0.38,0.17 -0.38,0.38s0.17,0.38 0.38,0.38l0.91,0l0.82,1.64c0.38,0.93 0.58,1.91 0.58,2.91l0,20.6l-19.93,0l0,-20.6z" id="svg_7"/>
   <path d="m16.98,11.26c-3.62,0 -6.57,2.96 -6.57,6.59c0,0.21 0.17,0.38 0.38,0.38l12.37,0c0.21,0 0.38,-0.17 0.38,-0.38c0,-3.63 -2.94,-6.59 -6.57,-6.59zm-3.59,6.21c0.11,-1.9 1.68,-3.41 3.59,-3.41s3.48,1.51 3.59,3.41l-7.19,0zm7.95,0c-0.11,-2.32 -2.02,-4.17 -4.36,-4.17s-4.25,1.85 -4.36,4.17l-1.44,0c0.19,-3.04 2.72,-5.45 5.79,-5.45s5.6,2.41 5.79,5.45l-1.44,0z" id="svg_8"/>
   <path d="m16.98,15.1c-0.21,0 -0.38,0.17 -0.38,0.38l0,0.68c0,0.21 0.17,0.38 0.38,0.38s0.38,-0.17 0.38,-0.38l0,-0.68c0,-0.21 -0.17,-0.38 -0.38,-0.38z" id="svg_9"/>
   <path d="m18.46,15.85l-0.48,0.48c-0.15,0.15 -0.15,0.39 0,0.54c0.07,0.07 0.17,0.11 0.27,0.11s0.19,-0.04 0.27,-0.11l0.48,-0.48c0.15,-0.15 0.15,-0.39 0,-0.54c-0.15,-0.15 -0.39,-0.15 -0.54,0z" id="svg_10"/>
   <path d="m15.51,15.85c-0.15,-0.15 -0.39,-0.15 -0.54,0c-0.15,0.15 -0.15,0.39 0,0.54l0.48,0.48c0.08,0.07 0.17,0.11 0.27,0.11s0.19,-0.04 0.27,-0.11c0.15,-0.15 0.15,-0.39 0,-0.54l-0.48,-0.48z" id="svg_11"/>
   <path d="m16.98,19.96c-3.62,0 -6.57,2.96 -6.57,6.59c0,0.21 0.17,0.38 0.38,0.38l12.37,0c0.21,0 0.38,-0.17 0.38,-0.38c0,-3.63 -2.94,-6.59 -6.57,-6.59zm-3.59,6.21c0.11,-1.9 1.68,-3.41 3.59,-3.41s3.48,1.51 3.59,3.41l-7.19,0zm7.95,0c-0.11,-2.32 -2.02,-4.17 -4.36,-4.17s-4.25,1.86 -4.36,4.17l-1.44,0c0.19,-3.04 2.72,-5.45 5.79,-5.45s5.6,2.41 5.79,5.45l-1.44,0z" id="svg_12"/>
   <path d="m16.98,23.8c-0.21,0 -0.38,0.17 -0.38,0.38l0,0.68c0,0.21 0.17,0.38 0.38,0.38s0.38,-0.17 0.38,-0.38l0,-0.68c0,-0.21 -0.17,-0.38 -0.38,-0.38z" id="svg_13"/>
   <path d="m18.46,24.55l-0.48,0.48c-0.15,0.15 -0.15,0.39 0,0.54c0.07,0.07 0.17,0.11 0.27,0.11s0.19,-0.04 0.27,-0.11l0.48,-0.48c0.15,-0.15 0.15,-0.39 0,-0.54s-0.39,-0.15 -0.54,0z" id="svg_14"/>
   <path d="m15.51,24.55c-0.15,-0.15 -0.39,-0.15 -0.54,0s-0.15,0.39 0,0.54l0.48,0.48c0.08,0.07 0.17,0.11 0.27,0.11s0.19,-0.04 0.27,-0.11c0.15,-0.15 0.15,-0.39 0,-0.54l-0.48,-0.48z" id="svg_15"/>
  </g>
 </g>
</svg>