<?xml version="1.0" encoding="utf-8"?>
<svg viewBox="0 0 34 34" width="34" height="34" xmlns="http://www.w3.org/2000/svg">
  <g transform="matrix(0.5267639756202698, 0, 0, 0.5267639756202698, -200.80873407138478, -62.37950990169509)">
    <path d="M 441.484 154.636 L 437.355 152.446 L 438.121 150.532 C 438.54 149.485 438.516 148.356 438.046 147.081 C 437.259 144.948 435.391 143.308 433.048 142.694 L 425.349 140.678 C 425.353 140.102 425.229 139.506 424.966 138.845 C 424.073 136.603 422.111 134.941 419.778 134.293 C 419.736 134.281 419.692 134.275 419.65 134.264 C 419.341 134.184 419.029 134.112 418.709 134.068 C 418.549 134.046 418.384 134.045 418.221 134.032 C 418.023 134.017 417.827 133.987 417.626 133.987 C 417.622 133.987 417.617 133.987 417.613 133.987 L 417.571 133.987 C 417.571 133.987 417.57 133.987 417.57 133.987 C 417.566 133.987 417.562 133.987 417.558 133.987 L 409.432 134 C 409.231 134 409.036 134.03 408.837 134.046 C 408.674 134.059 408.508 134.06 408.348 134.083 C 408.028 134.127 407.717 134.199 407.409 134.28 C 407.365 134.291 407.32 134.298 407.277 134.31 C 404.94 134.963 402.971 136.63 402.071 138.876 C 401.805 139.54 401.679 140.137 401.682 140.713 L 393.971 142.755 C 391.629 143.375 389.758 145.019 388.966 147.152 C 388.491 148.428 388.464 149.557 388.88 150.604 L 389.641 152.517 L 385.5 154.722 C 384.713 155.141 384.073 155.651 383.601 156.237 C 381.766 158.513 381.682 161.99 383.366 166.03 C 383.526 166.414 383.898 166.646 384.29 166.646 C 384.413 166.646 384.539 166.623 384.66 166.574 L 394.082 162.809 C 395.057 163.898 396.462 164.547 397.938 164.546 C 398.334 164.546 398.734 164.501 399.132 164.405 L 405.491 162.875 C 406.117 164.095 407.371 164.907 408.811 164.907 C 408.813 164.907 408.815 164.907 408.817 164.907 L 408.848 164.907 C 408.848 164.907 408.849 164.907 408.849 164.907 C 408.85 164.907 408.852 164.907 408.854 164.907 L 409.945 164.905 L 418.108 164.893 L 418.108 164.893 C 418.11 164.893 418.111 164.892 418.113 164.892 L 418.145 164.892 C 419.587 164.89 420.845 164.074 421.473 162.85 L 427.831 164.36 C 428.223 164.453 428.618 164.498 429.008 164.498 C 430.491 164.498 431.905 163.844 432.885 162.748 L 442.295 166.484 C 442.416 166.533 442.541 166.556 442.664 166.556 C 443.055 166.556 443.426 166.324 443.587 165.942 C 445.283 161.896 445.21 158.418 443.38 156.147 C 442.908 155.561 442.27 155.053 441.484 154.636 Z M 409.943 162.905 L 408.848 162.907 C 407.991 162.907 407.269 162.294 407.129 161.449 L 403.743 140.987 C 403.662 140.498 403.786 139.977 404.159 139.245 C 405.051 137.499 406.724 136.329 408.647 136.06 C 408.692 136.054 408.738 136.054 408.783 136.049 C 409.016 136.022 409.252 136 409.491 136 L 417.571 135.987 C 417.809 135.988 418.042 136.009 418.274 136.035 C 418.32 136.04 418.367 136.04 418.412 136.046 C 420.329 136.311 421.994 137.473 422.877 139.212 C 423.247 139.942 423.37 140.462 423.287 140.951 L 419.838 161.423 C 419.695 162.271 418.968 162.888 418.109 162.892 L 409.943 162.905 Z M 385.157 157.493 C 385.46 157.118 385.891 156.779 386.44 156.488 L 390.384 154.387 L 393.043 161.071 L 384.86 164.341 C 384.16 162.336 383.593 159.433 385.157 157.493 Z M 398.664 162.461 C 397.147 162.826 395.568 162.01 394.993 160.563 L 390.738 149.864 C 390.51 149.291 390.543 148.65 390.841 147.848 C 391.407 146.323 392.768 145.142 394.483 144.688 L 401.962 142.708 L 404.98 160.942 L 398.664 162.461 Z M 428.294 162.414 L 421.989 160.916 L 425.063 142.671 L 432.541 144.629 C 434.252 145.077 435.609 146.253 436.169 147.773 C 436.464 148.573 436.494 149.214 436.264 149.789 L 431.976 160.501 C 431.395 161.952 429.812 162.773 428.294 162.414 Z M 442.095 164.254 L 433.926 161.01 L 436.607 154.314 L 440.547 156.403 C 441.092 156.692 441.522 157.028 441.823 157.402 C 443.382 159.337 442.803 162.246 442.095 164.254 Z"/>
  </g>
</svg>