<?xml version="1.0" encoding="utf-8"?>
<svg viewBox="17.857 53.572 67.312 65.829" style="enable-background:new 0 0 100 100;" xmlns="http://www.w3.org/2000/svg">
  <g>
    <path d="M 77.492 90.18 L 73.643 88.14 L 74.347 86.38 C 74.748 85.379 74.725 84.3 74.276 83.086 C 73.528 81.055 71.751 79.496 69.523 78.912 L 62.3 77.02 C 62.298 76.484 62.182 75.93 61.938 75.315 C 61.09 73.184 59.226 71.605 57.01 70.988 C 56.963 70.975 56.915 70.968 56.868 70.956 C 56.58 70.882 56.291 70.815 55.993 70.774 C 55.832 70.751 55.666 70.75 55.503 70.737 C 55.322 70.724 55.144 70.697 54.961 70.697 C 54.957 70.697 54.953 70.697 54.949 70.697 L 54.91 70.697 C 54.91 70.697 54.91 70.697 54.909 70.697 C 54.906 70.697 54.901 70.697 54.897 70.697 L 47.233 70.71 C 47.055 70.71 46.883 70.737 46.708 70.75 C 46.538 70.763 46.365 70.765 46.198 70.789 C 45.911 70.828 45.633 70.894 45.355 70.965 C 45.297 70.98 45.235 70.989 45.177 71.006 C 42.959 71.628 41.09 73.212 40.236 75.344 C 39.989 75.96 39.872 76.516 39.868 77.054 L 32.634 78.968 C 30.407 79.558 28.627 81.123 27.873 83.152 C 27.421 84.37 27.395 85.448 27.793 86.448 L 28.493 88.207 L 24.63 90.263 C 23.882 90.663 23.274 91.147 22.822 91.706 C 21.077 93.869 20.996 97.17 22.593 101.002 C 22.753 101.385 23.124 101.617 23.516 101.617 C 23.64 101.617 23.765 101.594 23.887 101.546 L 32.739 98.007 C 33.668 99.028 34.995 99.636 36.39 99.636 C 36.768 99.636 37.15 99.592 37.53 99.502 L 43.484 98.07 C 44.09 99.217 45.282 99.976 46.647 99.976 C 46.648 99.976 46.65 99.976 46.652 99.976 L 46.681 99.976 C 46.682 99.976 46.682 99.976 46.682 99.976 C 46.684 99.976 46.686 99.976 46.688 99.976 L 55.451 99.963 C 56.818 99.96 58.014 99.196 58.623 98.045 L 64.575 99.459 C 64.949 99.547 65.326 99.59 65.699 99.59 C 67.1 99.59 68.435 98.977 69.37 97.95 L 78.211 101.461 C 78.332 101.508 78.457 101.531 78.579 101.531 C 78.971 101.531 79.342 101.3 79.502 100.918 C 81.111 97.082 81.039 93.78 79.3 91.622 C 78.85 91.063 78.242 90.579 77.492 90.18 Z M 45.116 96.649 L 41.922 77.347 C 41.847 76.899 41.963 76.418 42.309 75.739 C 43.142 74.107 44.704 73.016 46.5 72.765 C 46.538 72.76 46.576 72.761 46.614 72.756 C 46.836 72.73 47.06 72.71 47.288 72.71 L 54.91 72.697 C 55.128 72.697 55.341 72.717 55.554 72.741 C 55.601 72.746 55.649 72.745 55.696 72.751 C 57.486 72.999 59.039 74.084 59.864 75.707 C 60.207 76.384 60.322 76.865 60.246 77.313 L 56.992 96.625 C 56.862 97.398 56.198 97.962 55.413 97.963 L 46.682 97.976 C 45.902 97.976 45.243 97.418 45.116 96.649 Z M 24.378 92.963 C 24.659 92.615 25.061 92.299 25.571 92.028 L 29.236 90.076 L 31.699 96.269 L 24.088 99.311 C 23.441 97.434 22.934 94.754 24.378 92.963 Z M 37.062 97.556 C 35.658 97.895 34.198 97.139 33.665 95.801 L 29.652 85.709 C 29.442 85.182 29.472 84.591 29.748 83.849 C 30.276 82.427 31.547 81.326 33.146 80.902 L 40.141 79.051 L 42.968 96.136 L 37.062 97.556 Z M 65.037 97.513 L 59.142 96.113 L 62.023 79.016 L 69.016 80.847 C 70.613 81.265 71.877 82.36 72.4 83.778 C 72.673 84.518 72.702 85.109 72.49 85.637 L 68.446 95.742 C 67.907 97.086 66.444 97.848 65.037 97.513 Z M 78.009 99.228 L 70.412 96.212 L 72.895 90.007 L 76.555 91.948 C 77.064 92.217 77.463 92.53 77.742 92.876 C 79.182 94.663 78.663 97.349 78.009 99.228 Z"/>
    <rect x="18.084" y="53.761" width="66.586" height="65.376" style="fill: rgba(216, 216, 216, 0); stroke: rgba(0, 0, 0, 0);"/>
  </g>
</svg>