<?xml version="1.0"?>
<svg width="34" height="34" xmlns="http://www.w3.org/2000/svg" xmlns:svg="http://www.w3.org/2000/svg" enable-background="new 0 0 100 100" version="1.1" xml:space="preserve">
 <title>63db9d643ff62100422bb2e6</title>

 <g class="layer">
  <title>Layer 1</title>
  <g id="svg_8">
   <path d="m14.07,12.86l-2.06,0c-0.21,0 -0.37,0.17 -0.37,0.37s0.16,0.37 0.37,0.37l2.06,0c0.2,0 0.37,-0.17 0.37,-0.37s-0.17,-0.37 -0.37,-0.37z" id="svg_1"/>
   <path d="m14.07,10.92l-2.06,0c-0.21,0 -0.37,0.17 -0.37,0.37s0.16,0.37 0.37,0.37l2.06,0c0.2,0 0.37,-0.17 0.37,-0.37s-0.17,-0.37 -0.37,-0.37z" id="svg_2"/>
   <path d="m28.06,14.99c-0.83,-0.66 -1.27,-1.14 -1.35,-1.9c0.28,-0.13 0.47,-0.41 0.47,-0.73l0,-1.04c0,-0.44 -0.36,-0.8 -0.81,-0.8l-1.23,0c-0.07,-0.42 -0.18,-0.82 -0.36,-1.2l-1.72,-3.77l0,-2.72c0,-0.2 -0.16,-0.37 -0.37,-0.37l-15.55,0c-0.2,0 -0.37,0.17 -0.37,0.37l0,2.72l-1.72,3.77c-0.28,0.61 -0.42,1.27 -0.42,1.94l0,18.89c0,0.21 0.16,0.37 0.37,0.37l15.06,0l0,0.39c0,0.6 0.54,1.08 1.19,1.08l7.15,0c0.66,0 1.2,-0.48 1.2,-1.08l0,-12.84c0,-1.16 -0.56,-2.28 -1.55,-3.07zm-0.46,0.58c0.78,0.62 1.22,1.46 1.26,2.36l-8.04,0c0.04,-0.92 0.51,-1.8 1.33,-2.42c0.86,-0.65 1.52,-1.26 1.65,-2.36l2.18,0c0.12,1.1 0.8,1.75 1.63,2.41zm-6.79,3.1l8.06,0l0,9.4l-8.06,0l0,-9.4zm5.63,-7.36l0,1.04c0,0.04 -0.03,0.07 -0.07,0.07l-2.93,0c-0.04,0 -0.07,-0.03 -0.07,-0.07l0,-1.04c0,-0.04 0.03,-0.07 0.07,-0.07l2.93,0c0.04,0 0.07,0.03 0.07,0.07zm-4.11,-8.13l0,1.97l-14.81,0l0,-1.97l14.81,0zm-11.93,2.71l5.27,0l0,9.22l-5.27,0l0,-9.22zm-5.02,23.88l0,-18.52c0,-0.57 0.12,-1.12 0.35,-1.64l1.7,-3.72l2.23,0l0,9.59c0,0.2 0.17,0.37 0.37,0.37l6.01,0c0.2,0 0.37,-0.17 0.37,-0.37l0,-9.59l6.01,0l1.7,3.72c0.13,0.28 0.21,0.58 0.27,0.89l-0.95,0c-0.45,0 -0.81,0.36 -0.81,0.81l0,1.04c0,0.31 0.18,0.58 0.43,0.71c-0.08,0.75 -0.51,1.21 -1.37,1.87c-1.03,0.79 -1.62,1.93 -1.62,3.13l0,11.71l-14.69,0zm23.03,1.47l-7.15,0c-0.25,0 -0.45,-0.16 -0.45,-0.34l0,-2.09l8.06,0l0,2.09c0,0.18 -0.21,0.34 -0.46,0.34z" id="svg_3"/>
   <path d="m27.01,21.91c0,0 0,0 0,0c0.2,0 0.37,-0.16 0.37,-0.37l0.01,-1.23c0,-0.2 -0.16,-0.37 -0.37,-0.37c0,0 0,0 0,0c-0.2,0 -0.37,0.16 -0.37,0.37l-0.01,1.23c0,0.2 0.16,0.37 0.37,0.37z" id="svg_4"/>
   <path d="m27.03,22.68c0,0 0,0 0,0c-0.2,0 -0.37,0.17 -0.37,0.37l-0.02,3.2c0,0.21 0.16,0.37 0.37,0.37c0,0 0,0 0,0c0.2,0 0.37,-0.17 0.37,-0.37l0.02,-3.2c0,-0.2 -0.17,-0.37 -0.37,-0.37z" id="svg_5"/>
  </g>
 </g>
</svg>