<?xml version="1.0"?>
<svg width="34" height="34" xmlns="http://www.w3.org/2000/svg" xmlns:svg="http://www.w3.org/2000/svg" enable-background="new 0 0 100 100" version="1.1" xml:space="preserve">
 <style type="text/css">.st0{fill:none;stroke:#000000;stroke-width:2;stroke-linecap:round;stroke-linejoin:round;stroke-miterlimit:10;}
	.st1{fill:none;stroke:#000000;stroke-width:2;stroke-miterlimit:10;}</style>

 <g class="layer">
  <title>Layer 1</title>
  <path d="m2.03,2.85l3.11,0l0.91,5.81l2.09,14.69c0,0 0,0 0,0c0,0 0,0 0,0l0.57,3.57c0.04,0.19 0.19,0.3 0.38,0.3l1.82,0c-0.65,0.46 -1.1,1.18 -1.1,2.05c0,1.33 1.1,2.43 2.43,2.43s2.43,-1.1 2.43,-2.43c0,-0.84 -0.42,-1.59 -1.1,-2.05l11.12,0c-0.65,0.46 -1.1,1.18 -1.1,2.05c0,1.33 1.1,2.43 2.43,2.43s2.43,-1.1 2.43,-2.43c0,-0.84 -0.42,-1.59 -1.1,-2.05l2.28,0c0.23,0 0.38,-0.15 0.38,-0.38s-0.15,-0.38 -0.38,-0.38l-20.24,0l-0.46,-2.81l20.88,0c0.19,0 0.34,-0.15 0.38,-0.34l2.05,-14.69c0,-0.11 0,-0.23 -0.08,-0.3s-0.19,-0.11 -0.3,-0.11l-1.29,0l0,-4.29c0,-0.23 -0.15,-0.38 -0.38,-0.38l-4.75,0l0,-1.21c0,-0.23 -0.15,-0.38 -0.38,-0.38l-7.21,0c-0.23,0 -0.38,0.15 -0.38,0.38l0,5.88l-0.91,0l0,-4.29c0,-0.23 -0.15,-0.38 -0.38,-0.38l-7.21,0c-0.23,0 -0.38,0.15 -0.38,0.38l0,4.29l-1.82,0l-0.91,-5.81c-0.04,-0.19 -0.19,-0.3 -0.38,-0.3l-3.45,0c-0.23,0 -0.38,0.15 -0.38,0.38s0.19,0.38 0.38,0.38zm10.21,28.09c-0.91,0 -1.67,-0.76 -1.67,-1.67s0.76,-1.67 1.67,-1.67c0.91,0 1.67,0.76 1.67,1.67s-0.76,1.67 -1.67,1.67zm13.82,0c-0.91,0 -1.67,-0.76 -1.67,-1.67s0.76,-1.67 1.67,-1.67c0.91,0 1.67,0.76 1.67,1.67s-0.76,1.67 -1.67,1.67zm-7.25,-21.98l0,3.83l-5.35,0l-0.49,-3.83l5.85,0zm6.42,0l-0.42,3.83l-5.24,0l0,-3.83l5.66,0zm5.01,8.69l-5.16,0l0.42,-4.06l5.32,0l-0.57,4.06zm-5.92,0l-4.75,0l0,-4.06l5.16,0l-0.42,4.06zm-16.1,0.76l5.2,0l0.61,4.48l-5.2,0l-0.61,-4.48zm5.96,0l4.59,0l0,4.48l-3.99,0l-0.61,-4.48zm5.39,0l4.67,0l-0.49,4.48l-4.18,0l0,-4.48zm-0.76,-4.82l0,4.06l-4.71,0l-0.53,-4.06l5.24,0zm-5.47,4.06l-5.24,0l-0.57,-4.06l5.28,0l0.53,4.06zm16.17,5.24l-4.97,0l0.46,-4.48l5.13,0l-0.61,4.48zm1.4,-10.06l-5.35,0l0.42,-3.87l5.47,0l-0.53,3.87zm-1.06,-4.63l-6.45,0l0,-3.91l6.45,0l0,3.91zm-11.62,-5.5l6.45,0l0,0.84l-1.71,0c-0.23,0 -0.38,0.15 -0.38,0.38l0,4.29l-4.37,0l0,-5.5zm-8.88,1.59l6.45,0l0,3.91l-6.45,0l0,-3.91zm2.85,4.67l0.49,3.87l-5.28,0l-0.53,-3.83l5.32,0l0,-0.04z" id="svg_1"/>
 </g>
</svg>