<svg xmlns="http://www.w3.org/2000/svg" xmlns:xlink="http://www.w3.org/1999/xlink" version="1.1" x="0px" y="0px" viewBox="0 0 100 125" style="enable-background:new 0 0 100 100;" xml:space="preserve"><style type="text/css">
	.st0{fill:none;stroke:#000000;stroke-width:2;stroke-linecap:round;stroke-linejoin:round;stroke-miterlimit:10;}
	.st1{fill:none;stroke:#000000;stroke-width:2;stroke-miterlimit:10;}
</style><path d="M10.9,12.8h8.2l2.4,15.3L27,66.8c0,0,0,0,0,0c0,0,0,0,0,0l1.5,9.4c0.1,0.5,0.5,0.8,1,0.8h4.8c-1.7,1.2-2.9,3.1-2.9,5.4  c0,3.5,2.9,6.4,6.4,6.4s6.4-2.9,6.4-6.4c0-2.2-1.1-4.2-2.9-5.4h29.3c-1.7,1.2-2.9,3.1-2.9,5.4c0,3.5,2.9,6.4,6.4,6.4  s6.4-2.9,6.4-6.4c0-2.2-1.1-4.2-2.9-5.4h6c0.6,0,1-0.4,1-1s-0.4-1-1-1H30.3l-1.1-7.4h55c0.5,0,0.9-0.4,1-0.9l5.4-38.7  c0-0.3,0-0.6-0.2-0.8s-0.5-0.3-0.8-0.3H23.4L21,11.7c-0.1-0.5-0.5-0.8-1-0.8h-9.1c-0.6,0-1,0.4-1,1S10.4,12.8,10.9,12.8z M37.8,86.8  c-2.4,0-4.4-2-4.4-4.4c0-2.4,2-4.4,4.4-4.4c2.4,0,4.4,2,4.4,4.4C42.2,84.9,40.2,86.8,37.8,86.8z M74.2,86.8c-2.4,0-4.4-2-4.4-4.4  c0-2.4,2-4.4,4.4-4.4c2.4,0,4.4,2,4.4,4.4C78.6,84.9,76.6,86.8,74.2,86.8z M85.2,51.8H71.6l1.1-10.7h14L85.2,51.8z M69.6,51.8H57.1  V41.1h13.6L69.6,51.8z M27.2,53.8h13.7l1.5,11.8H28.8L27.2,53.8z M42.9,53.8h12.1v11.8H44.5L42.9,53.8z M57.1,53.8h12.3l-1.2,11.8  H57.1V53.8z M57.1,39.1V28.9H72l-1.1,10.1H57.1z M55.1,39.1H41l-1.3-10.1h15.4V39.1z M55.1,41.1v10.7H42.7l-1.4-10.7H55.1z   M40.7,51.8H26.9l-1.5-10.7h13.9L40.7,51.8z M83.3,65.6H70.2l1.2-11.8h13.5L83.3,65.6z M87,39.1H72.9L74,28.9h14.4L87,39.1z   M37.7,28.9L39,39.1H25.1l-1.4-10.1H37.7z"/><text x="0" y="115" fill="#000000" font-size="5px" font-weight="bold" font-family="'Helvetica Neue', Helvetica, Arial-Unicode, Arial, Sans-serif">Created by Made</text><text x="0" y="120" fill="#000000" font-size="5px" font-weight="bold" font-family="'Helvetica Neue', Helvetica, Arial-Unicode, Arial, Sans-serif">from the Noun Project</text></svg>